<svg width="1440" height="856" viewBox="0 0 1440 856" fill="none" xmlns="http://www.w3.org/2000/svg">
<g clip-path="url(#clip0_53_546)">
<mask id="mask0_53_546" style="mask-type:alpha" maskUnits="userSpaceOnUse" x="0" y="0" width="1440" height="856">
<path d="M1440 0H0V856H1440V0Z" fill="url(#paint0_linear_53_546)"/>
</mask>
<g mask="url(#mask0_53_546)">
<mask id="mask1_53_546" style="mask-type:alpha" maskUnits="userSpaceOnUse" x="0" y="0" width="1440" height="856">
<path d="M1440 0H0V856H1440V0Z" fill="url(#paint1_linear_53_546)"/>
</mask>
<g mask="url(#mask1_53_546)">
<path d="M-361 1400.5H1799M-361 1360.5H1799M-361 1320.5H1799M-361 1280.5H1799M-361 1240.5H1799M-361 1200.5H1799M-361 1160.5H1799M-361 1120.5H1799M-361 1080.5H1799M-361 1040.5H1799M-361 1000.5H1799M-361 960.502H1799M-361 920.502H1799M-361 880.502H1799M-361 840.502H1799M-361 800.502H1799M-361 760.502H1799M-361 720.502H1799M-361 680.502H1799M-361 640.502H1799M-361 600.502H1799M-361 560.502H1799M-361 520.502H1799M-361 480.502H1799M-361 440.502H1799M-361 400.502H1799M-361 360.5H1799M-361 320.5H1799M-361 280.5H1799M-361 240.5H1799M-361 200.5H1799M-361 160.5H1799M-361 120.5H1799M-361 80.5H1799M-361 40.5H1799M-361 0.5H1799M-360.5 1V1401M-320.5 1V1401M-280.5 1V1401M-240.5 1V1401M-200.5 1V1401M-160.5 1V1401M-120.5 1V1401M-80.5 1V1401M-40.5 1V1401M-0.5 1V1401M39.5 1V1401M79.5 1V1401M119.5 1V1401M159.5 1V1401M199.5 1V1401M239.5 1V1401M279.502 1V1401M319.502 1V1401M359.502 1V1401M399.502 1V1401M439.502 1V1401M479.502 1V1401M519.502 1V1401M559.502 1V1401M599.502 1V1401M639.5 1V1401M679.5 1V1401M719.5 1V1401M759.5 1V1401M799.5 1V1401M839.5 1V1401M879.5 1V1401M919.5 1V1401M959.5 1V1401M999.5 1V1401M1039.5 1V1401M1079.5 1V1401M1119.5 1V1401M1159.5 1V1401M1199.5 1V1401M1239.5 1V1401M1279.5 1V1401M1319.5 1V1401M1359.5 1V1401M1399.5 1V1401M1439.5 1V1401M1479.5 1V1401M1519.5 1V1401M1559.5 1V1401M1599.5 1V1401M1639.5 1V1401M1679.5 1V1401M1719.5 1V1401M1759.5 1V1401M1799.5 1V1401" stroke="#30B0C7" stroke-opacity="0.2"/>
<path d="M959 521H999V561H959V521ZM639 521H679V561H639V521ZM639 961H679V1001H639V961ZM359 641H399V681H359V641ZM-281 81H-241V121H-281V81ZM559 81H599V121H559V81ZM1159 241H1199V281H1159V241ZM639 241H679V281H639V241ZM759 361H799V401H759V361ZM1119 401H1159V441H1119V401ZM439 201H479V241H439V201ZM-121 561H-81V601H-121V561ZM1079 681H1119V721H1079V681ZM1239 961H1279V1001H1239V961ZM1359 601H1399V641H1359V601ZM1519 801H1559V841H1519V801ZM1439 201H1479V241H1439V201ZM-281 361H-241V401H-281V361ZM-281 1001H-241V1041H-281V1001ZM119 161H159V201H119V161ZM-41 321H-1V361H-41V321ZM199 561H239V601H199V561ZM199 1201H239V1241H199V1201ZM199 921H239V961H199V921ZM999 161H1039V201H999V161Z" fill="#30B0C7" fill-opacity="0.2"/>
</g>
</g>
</g>
<defs>
<linearGradient id="paint0_linear_53_546" x1="1440" y1="428" x2="0" y2="428" gradientUnits="userSpaceOnUse">
<stop stop-color="#FBF7FF" stop-opacity="0"/>
<stop offset="0.200006" stop-color="#FBF7FF"/>
<stop offset="0.5" stop-color="#FBF7FF"/>
<stop offset="0.795558" stop-color="#FBF7FF"/>
<stop offset="1" stop-color="#FBF7FF" stop-opacity="0"/>
</linearGradient>
<linearGradient id="paint1_linear_53_546" x1="720" y1="0" x2="720" y2="856" gradientUnits="userSpaceOnUse">
<stop stop-color="#FBF7FF"/>
<stop offset="1" stop-color="#FBF7FF" stop-opacity="0"/>
</linearGradient>
<clipPath id="clip0_53_546">
<rect width="1440" height="856" fill="white"/>
</clipPath>
</defs>
</svg>
