<svg width="1440" height="1144" viewBox="0 0 1440 1144" fill="none" xmlns="http://www.w3.org/2000/svg">
<rect width="1440" height="978" transform="matrix(1 0 0 -1 0 978)" fill="url(#paint0_linear_58_102)"/>
<g clip-path="url(#clip0_58_102)">
<g clip-path="url(#clip1_58_102)">
<mask id="mask0_58_102" style="mask-type:alpha" maskUnits="userSpaceOnUse" x="-73" y="412" width="1586" height="566">
<path d="M1513 978H-73V412.162H1513V978Z" fill="url(#paint1_linear_58_102)"/>
</mask>
<g mask="url(#mask0_58_102)">
<mask id="mask1_58_102" style="mask-type:alpha" maskUnits="userSpaceOnUse" x="-73" y="412" width="1586" height="566">
<path d="M1513 978H-73V412.162H1513V978Z" fill="url(#paint2_linear_58_102)"/>
</mask>
<g mask="url(#mask1_58_102)">
<g style="mix-blend-mode:multiply">
<path d="M1513 978H-73V145.342H1513V978Z" stroke="#7CCAC7" stroke-opacity="0.5" stroke-width="0.826041"/>
<path d="M1421.34 929.877H18.6602V193.461H1421.34V929.877Z" stroke="#7CCAC7" stroke-opacity="0.5" stroke-width="0.826041"/>
<path d="M1338.41 886.339H101.591V237.002H1338.41V886.339Z" stroke="#7CCAC7" stroke-opacity="0.5" stroke-width="0.826041"/>
<path d="M1264.2 847.382H175.792V275.957H1264.2V847.382Z" stroke="#7CCAC7" stroke-opacity="0.5" stroke-width="0.826041"/>
<path d="M1198.73 813.01H241.264V310.331H1198.73V813.01Z" stroke="#7CCAC7" stroke-opacity="0.5" stroke-width="0.826041"/>
<path d="M1141.99 783.22H298.005V340.121H1141.99V783.22Z" stroke="#7CCAC7" stroke-opacity="0.5" stroke-width="0.826041"/>
<path d="M1093.98 758.013H346.019V365.328H1093.98V758.013Z" stroke="#7CCAC7" stroke-opacity="0.5" stroke-width="0.826041"/>
<path d="M1054.7 737.39H385.302V385.952H1054.7V737.39Z" stroke="#7CCAC7" stroke-opacity="0.5" stroke-width="0.826041"/>
<path d="M1024.15 721.349H415.856V401.993H1024.15V721.349Z" stroke="#7CCAC7" stroke-opacity="0.5" stroke-width="0.826041"/>
<path d="M1002.32 709.89H437.68V413.449H1002.32V709.89Z" stroke="#7CCAC7" stroke-opacity="0.5" stroke-width="0.826041"/>
<path d="M984.862 700.723H455.138V422.615H984.862V700.723Z" stroke="#7CCAC7" stroke-opacity="0.5" stroke-width="0.826041"/>
<path d="M455.137 422.615L-73.0005 145.342" stroke="#7CCAC7" stroke-opacity="0.5" stroke-width="0.826041"/>
<path d="M492.976 422.615L71.8003 145.342" stroke="#7CCAC7" stroke-opacity="0.5" stroke-width="0.826041"/>
<path d="M530.812 422.615L198.961 145.342" stroke="#7CCAC7" stroke-opacity="0.5" stroke-width="0.826041"/>
<path d="M568.65 422.615L314.312 145.342" stroke="#7CCAC7" stroke-opacity="0.5" stroke-width="0.826041"/>
<path d="M606.487 422.615L421.683 145.342" stroke="#7CCAC7" stroke-opacity="0.5" stroke-width="0.826041"/>
<path d="M644.325 422.615L523.781 145.342" stroke="#7CCAC7" stroke-opacity="0.5" stroke-width="0.826041"/>
<path d="M682.162 422.615L622.655 145.342" stroke="#7CCAC7" stroke-opacity="0.5" stroke-width="0.826041"/>
<path d="M720 422.615V145.342" stroke="#7CCAC7" stroke-opacity="0.5" stroke-width="0.826041"/>
<path d="M757.84 422.615L817.34 145.342" stroke="#7CCAC7" stroke-opacity="0.5" stroke-width="0.826041"/>
<path d="M795.673 422.615L916.217 145.342" stroke="#7CCAC7" stroke-opacity="0.5" stroke-width="0.826041"/>
<path d="M833.514 422.615L1018.32 145.342" stroke="#7CCAC7" stroke-opacity="0.5" stroke-width="0.826041"/>
<path d="M871.347 422.615L1125.68 145.342" stroke="#7CCAC7" stroke-opacity="0.5" stroke-width="0.826041"/>
<path d="M909.188 422.615L1241.03 145.342" stroke="#7CCAC7" stroke-opacity="0.5" stroke-width="0.826041"/>
<path d="M947.021 422.615L1368.2 145.342" stroke="#7CCAC7" stroke-opacity="0.5" stroke-width="0.826041"/>
<path d="M984.861 422.615L1513 145.342" stroke="#7CCAC7" stroke-opacity="0.5" stroke-width="0.826041"/>
<path d="M455.138 700.725L-72.9995 978" stroke="#7CCAC7" stroke-opacity="0.5" stroke-width="0.826041"/>
<path d="M455.138 680.858L-72.999 901.978" stroke="#7CCAC7" stroke-opacity="0.5" stroke-width="0.826041"/>
<path d="M455.137 660.995L-72.999 835.218" stroke="#7CCAC7" stroke-opacity="0.5" stroke-width="0.826041"/>
<path d="M455.138 641.13L-72.999 774.659" stroke="#7CCAC7" stroke-opacity="0.5" stroke-width="0.826041"/>
<path d="M455.138 621.265L-72.999 718.288" stroke="#7CCAC7" stroke-opacity="0.5" stroke-width="0.826041"/>
<path d="M455.138 601.399L-72.9995 664.685" stroke="#7CCAC7" stroke-opacity="0.5" stroke-width="0.826041"/>
<path d="M455.138 581.536L-72.9995 612.776" stroke="#7CCAC7" stroke-opacity="0.5" stroke-width="0.826041"/>
<path d="M455.138 561.669H-72.9995" stroke="#7CCAC7" stroke-opacity="0.5" stroke-width="0.826041"/>
<path d="M455.138 541.804L-72.9995 510.563" stroke="#7CCAC7" stroke-opacity="0.5" stroke-width="0.826041"/>
<path d="M455.138 521.94L-72.9995 458.653" stroke="#7CCAC7" stroke-opacity="0.5" stroke-width="0.826041"/>
<path d="M455.138 502.075L-72.999 405.052" stroke="#7CCAC7" stroke-opacity="0.5" stroke-width="0.826041"/>
<path d="M455.138 482.211L-72.999 348.682" stroke="#7CCAC7" stroke-opacity="0.5" stroke-width="0.826041"/>
<path d="M455.138 462.346L-72.999 288.122" stroke="#7CCAC7" stroke-opacity="0.5" stroke-width="0.826041"/>
<path d="M455.138 442.481L-72.999 221.361" stroke="#7CCAC7" stroke-opacity="0.5" stroke-width="0.826041"/>
<path d="M984.861 700.725L1513 978.001" stroke="#7CCAC7" stroke-opacity="0.5" stroke-width="0.826041"/>
<path d="M947.021 700.725L1368.2 978.001" stroke="#7CCAC7" stroke-opacity="0.5" stroke-width="0.826041"/>
<path d="M909.188 700.725L1241.04 978.001" stroke="#7CCAC7" stroke-opacity="0.5" stroke-width="0.826041"/>
<path d="M871.347 700.725L1125.68 978.001" stroke="#7CCAC7" stroke-opacity="0.5" stroke-width="0.826041"/>
<path d="M833.514 700.725L1018.32 978" stroke="#7CCAC7" stroke-opacity="0.5" stroke-width="0.826041"/>
<path d="M795.673 700.725L916.217 978" stroke="#7CCAC7" stroke-opacity="0.5" stroke-width="0.826041"/>
<path d="M757.833 700.725L817.341 978" stroke="#7CCAC7" stroke-opacity="0.5" stroke-width="0.826041"/>
<path d="M720 700.725V978" stroke="#7CCAC7" stroke-opacity="0.5" stroke-width="0.826041"/>
<path d="M682.161 700.725L622.654 978" stroke="#7CCAC7" stroke-opacity="0.5" stroke-width="0.826041"/>
<path d="M644.324 700.725L523.781 978" stroke="#7CCAC7" stroke-opacity="0.5" stroke-width="0.826041"/>
<path d="M606.487 700.725L421.683 978" stroke="#7CCAC7" stroke-opacity="0.5" stroke-width="0.826041"/>
<path d="M568.65 700.724L314.312 978" stroke="#7CCAC7" stroke-opacity="0.5" stroke-width="0.826041"/>
<path d="M530.811 700.724L198.961 978" stroke="#7CCAC7" stroke-opacity="0.5" stroke-width="0.826041"/>
<path d="M492.976 700.724L71.7993 978" stroke="#7CCAC7" stroke-opacity="0.5" stroke-width="0.826041"/>
<path d="M984.861 442.483L1513 221.363" stroke="#7CCAC7" stroke-opacity="0.5" stroke-width="0.826041"/>
<path d="M984.861 462.346L1513 288.122" stroke="#7CCAC7" stroke-opacity="0.5" stroke-width="0.826041"/>
<path d="M984.861 482.211L1513 348.682" stroke="#7CCAC7" stroke-opacity="0.5" stroke-width="0.826041"/>
<path d="M984.861 502.075L1513 405.052" stroke="#7CCAC7" stroke-opacity="0.5" stroke-width="0.826041"/>
<path d="M984.861 521.94L1513 458.653" stroke="#7CCAC7" stroke-opacity="0.5" stroke-width="0.826041"/>
<path d="M984.861 541.805L1513 510.564" stroke="#7CCAC7" stroke-opacity="0.5" stroke-width="0.826041"/>
<path d="M984.861 561.669H1513" stroke="#7CCAC7" stroke-opacity="0.5" stroke-width="0.826041"/>
<path d="M984.861 581.536L1513 612.778" stroke="#7CCAC7" stroke-opacity="0.5" stroke-width="0.826041"/>
<path d="M984.861 601.4L1513 664.686" stroke="#7CCAC7" stroke-opacity="0.5" stroke-width="0.826041"/>
<path d="M984.861 621.266L1513 718.288" stroke="#7CCAC7" stroke-opacity="0.5" stroke-width="0.826041"/>
<path d="M984.861 641.13L1513 774.659" stroke="#7CCAC7" stroke-opacity="0.5" stroke-width="0.826041"/>
<path d="M984.861 660.995L1513 835.218" stroke="#7CCAC7" stroke-opacity="0.5" stroke-width="0.826041"/>
<path d="M984.861 680.859L1513 901.979" stroke="#7CCAC7" stroke-opacity="0.5" stroke-width="0.826041"/>
</g>
</g>
</g>
</g>
</g>
<g clip-path="url(#clip2_58_102)">
<g clip-path="url(#clip3_58_102)">
<g clip-path="url(#clip4_58_102)">
<g filter="url(#filter0_f_58_102)">
<path d="M92.2081 709.142C164.317 709.142 222.774 767.598 222.774 839.708C222.774 911.817 164.317 970.273 92.2081 970.273C20.0988 970.273 -38.3574 911.817 -38.3574 839.708C-38.3574 767.598 20.0988 709.142 92.2081 709.142Z" fill="#D2F8FF"/>
</g>
</g>
</g>
</g>
<defs>
<filter id="filter0_f_58_102" x="-211.292" y="536.208" width="607" height="607" filterUnits="userSpaceOnUse" color-interpolation-filters="sRGB">
<feFlood flood-opacity="0" result="BackgroundImageFix"/>
<feBlend mode="normal" in="SourceGraphic" in2="BackgroundImageFix" result="shape"/>
<feGaussianBlur stdDeviation="86.4672" result="effect1_foregroundBlur_58_102"/>
</filter>
<linearGradient id="paint0_linear_58_102" x1="720" y1="0" x2="720" y2="978" gradientUnits="userSpaceOnUse">
<stop stop-color="#DCFAFF"/>
<stop offset="1" stop-color="#DCFAFF" stop-opacity="0"/>
</linearGradient>
<linearGradient id="paint1_linear_58_102" x1="1513" y1="695.081" x2="-73" y2="695.081" gradientUnits="userSpaceOnUse">
<stop stop-color="white" stop-opacity="0"/>
<stop offset="0.1" stop-color="white"/>
<stop offset="0.5" stop-color="white"/>
<stop offset="0.9" stop-color="white"/>
<stop offset="1" stop-color="white" stop-opacity="0"/>
</linearGradient>
<linearGradient id="paint2_linear_58_102" x1="720" y1="978" x2="720" y2="412.162" gradientUnits="userSpaceOnUse">
<stop stop-color="#F8F2FF"/>
<stop offset="1" stop-color="#F8F2FF" stop-opacity="0"/>
</linearGradient>
<clipPath id="clip0_58_102">
<rect width="1586" height="607" fill="white" transform="matrix(1 0 0 -1 -73 978)"/>
</clipPath>
<clipPath id="clip1_58_102">
<rect width="1586" height="565.838" fill="white" transform="matrix(1 0 0 -1 -73 978)"/>
</clipPath>
<clipPath id="clip2_58_102">
<rect width="1486.87" height="607" fill="white" transform="matrix(1 0 0 -1 -651.229 1143.21)"/>
</clipPath>
<clipPath id="clip3_58_102">
<rect width="1486.87" height="607" fill="white" transform="matrix(1 0 0 -1 -651.229 1143.21)"/>
</clipPath>
<clipPath id="clip4_58_102">
<rect width="607" height="607" fill="white" transform="matrix(1 0 0 -1 -211.292 1143.21)"/>
</clipPath>
</defs>
</svg>
