<svg width="30" height="50" viewBox="0 0 30 50" fill="none" xmlns="http://www.w3.org/2000/svg">
<path d="M26.7281 15.3403C26.9254 15.3403 27.0805 15.4108 27.1933 15.5517C27.3343 15.6927 27.4048 15.8619 27.4048 16.0593V17.2646V18.47C27.4048 18.6674 27.3343 18.8366 27.1933 18.9775C27.0805 19.0903 26.9254 19.1467 26.7281 19.1467L10.8663 19.2736L10.9509 22.4879V28.7474L20.5516 28.832C20.749 28.8602 20.904 28.9448 21.0168 29.0858C21.1578 29.1985 21.2283 29.3536 21.2283 29.551V31.9617C21.2283 32.1591 21.1578 32.3283 21.0168 32.4693C20.904 32.582 20.749 32.6384 20.5516 32.6384L10.9509 32.7653V37.5445L10.824 44.1001C10.7958 44.2974 10.7112 44.4666 10.5703 44.6076C10.4575 44.7486 10.3024 44.819 10.105 44.819H7.5251C7.32773 44.819 7.15856 44.7486 7.01758 44.6076C6.90479 44.4666 6.8484 44.2974 6.8484 44.1001L6.67923 37.5445V22.4879L6.8484 15.9324C6.8484 15.735 6.90479 15.5658 7.01758 15.4249C7.15856 15.2839 7.32773 15.2134 7.5251 15.2134H10.105L10.1896 15.2557L26.7281 15.3403Z" fill="#30B0C7"/>
<path d="M13.5926 15.3403C13.7336 15.3403 13.8605 15.3967 13.9733 15.5094C14.086 15.6222 14.1424 15.7491 14.1424 15.8901V18.1317C14.1424 18.2726 14.086 18.3995 13.9733 18.5123C13.8605 18.6251 13.7336 18.6815 13.5926 18.6815L10.4629 18.7661L10.5475 22.2341V37.8406L10.4629 41.3087L13.5926 41.3509C13.7336 41.3509 13.8605 41.4073 13.9733 41.5201C14.086 41.6329 14.1424 41.7598 14.1424 41.9008V44.1846C14.1424 44.3256 14.086 44.4525 13.9733 44.5653C13.8605 44.6499 13.7336 44.7063 13.5926 44.7345L8.51735 44.819L3.48439 44.7345C3.34341 44.7063 3.21653 44.6499 3.10375 44.5653C2.99096 44.4525 2.93457 44.3256 2.93457 44.1846V41.9008C2.93457 41.7598 2.99096 41.6329 3.10375 41.5201C3.21653 41.4073 3.34341 41.3509 3.48439 41.3509L6.61413 41.3087L6.52954 37.8406V22.2341L6.61413 18.7661L3.48439 18.6815C3.34341 18.6815 3.21653 18.6251 3.10375 18.5123C2.99096 18.3995 2.93457 18.2726 2.93457 18.1317V15.8901C2.93457 15.7491 2.99096 15.6222 3.10375 15.5094C3.21653 15.3967 3.34341 15.3403 3.48439 15.3403L8.51735 15.2134L13.5926 15.3403Z" fill="#30B0C7"/>
<path d="M28.1848 28.7113C28.3822 28.7395 28.5514 28.8241 28.6924 28.965C28.8334 29.106 28.9038 29.2752 28.9038 29.4726V31.9679C28.9038 32.1653 28.8334 32.3344 28.6924 32.4754C28.5514 32.6164 28.3822 32.701 28.1848 32.7292L23.9978 32.8561V41.7378L23.8286 48.5471C23.8286 48.7444 23.7581 48.9136 23.6171 49.0546C23.4761 49.1956 23.307 49.2661 23.1096 49.2661H20.6566C20.4592 49.2661 20.2759 49.1956 20.1067 49.0546C19.9658 48.9136 19.8953 48.7444 19.8953 48.5471L19.7684 41.7378V32.6488H15.5512C15.3538 32.6206 15.2148 32.6305 15.0738 32.5177C14.9328 32.3767 14.8623 32.2076 14.8623 32.0102V29.4726C14.8623 29.2752 14.9187 29.106 15.0315 28.965C15.1725 28.8241 15.3256 28.8152 15.5512 28.787H19.7684V24.9894L19.8953 18.2224C19.8953 18.025 19.9658 17.8559 20.1067 17.7149C20.2477 17.5739 20.431 17.5034 20.6566 17.5034H23.1096C23.307 17.5034 23.4761 17.5739 23.6171 17.7149C23.7581 17.8559 23.8286 18.025 23.8286 18.2224L23.9978 24.9894V28.5844L28.1848 28.7113Z" fill="#30B0C7"/>
<rect y="6.16895" width="3.74474" height="7.92444" rx="1.87237" transform="rotate(-31.8466 0 6.16895)" fill="#00C7BE"/>
<rect width="3.74474" height="6.9312" rx="1.87237" transform="matrix(-0.849463 -0.527647 -0.527647 0.849463 29.5879 6.89551)" fill="#00C7BE"/>
<rect x="13.0371" width="3.74474" height="9.82994" rx="1.87237" fill="#00C7BE"/>
</svg>
